<svg width="153" height="293" viewBox="0 0 153 293" fill="none" xmlns="http://www.w3.org/2000/svg">
<g clip-path="url(#clip0_23838_2739)">
<path d="M71.9134 233.205C72.6453 213.856 73.4303 194.199 79.5032 175.844C85.5787 157.489 97.7856 140.291 115.429 132.944C122.527 129.991 130.204 128.724 137.358 125.914C144.511 123.104 150.429 118.302 153 110.966C146.437 114.614 138.638 114.809 131.213 115.725C120.249 117.078 109.5 120.194 99.4861 124.919C95.7976 126.66 92.1704 128.646 89.118 131.377C86.0683 134.109 83.6067 137.662 82.7338 141.699C81.861 145.736 83.7398 151.415 86.5447 154.409C86.5447 154.409 67.0621 177.879 66.2344 233.205H71.9134Z" fill="#DFFF9A"/>
<path d="M61.4924 233.205H69.7208C62.642 163.053 74.2448 109.204 94.0468 82.3059L94.0574 82.2978C98.6746 77.8287 103.294 73.3514 107.912 68.8823C120.683 56.499 133.539 44.0211 143.782 29.4195C146.808 25.1125 149.626 20.5596 151.143 15.496C152.66 10.4298 152.774 4.76634 150.501 0C145.639 2.40209 141.501 6.47942 136.637 8.8815C116.571 18.7952 96.3647 28.7845 78.4389 42.2702C72.6535 46.6232 66.9585 51.5435 63.8689 58.1364C60.561 65.2184 60.7127 73.8675 64.2734 80.8144C67.8367 87.772 74.9607 92.1169 82.5664 93.4273C82.7846 93.2166 83.0108 92.9977 83.2264 92.787C55.6112 141.477 60.4466 232.443 61.4924 233.208V233.205Z" fill="#DFFF9A"/>
<path d="M50.906 183.747C51.707 180.332 53.7907 176.4 53.663 172.891C53.5379 169.381 52.5453 165.811 50.3311 163.115C47.5741 159.759 43.2577 158.124 39.0104 157.419C32.8178 156.392 26.4922 157.051 20.2357 157.532C16.5899 157.813 12.8908 158.032 9.30086 157.324C5.71091 156.616 2.19015 154.884 -0.00267792 151.912C0.162315 157.319 4.52135 161.745 9.24231 164.252C13.9633 166.76 19.3069 167.711 24.4031 169.286C30.8539 171.283 37.0332 174.35 42.2331 178.713C60.59 193.918 59.2701 227.563 59.2701 233.205H64.7734C64.7734 233.205 62.7908 205.093 50.9033 183.747H50.906Z" fill="#DFFF9A"/>
<path d="M11.9947 72.7653C15.6272 84.6677 48.2961 102.836 53.6025 129.094C58.1132 151.423 59.9281 202.845 60.6254 233.205H64.3191C63.8135 204.637 62.0012 156.563 55.6649 125.744C64.4176 119.037 72.4251 105.457 51.6199 90.7066C30.8147 75.9537 12.982 68.0719 11.9921 56.5073C11.9921 56.5073 8.35686 60.863 11.9921 72.768L11.9947 72.7653Z" fill="#DFFF9A"/>
<g filter="url(#filter0_f_23838_2739)">
<ellipse cx="65.5" cy="284" rx="58.5" ry="4" fill="url(#paint0_radial_23838_2739)" fill-opacity="0.4"/>
</g>
<path d="M36.2641 225.456L37.4031 240.487L37.6585 243.808L39.7502 271.311L40.7216 284H64.7734V225.456H36.2641Z" fill="#9EBCCC"/>
<path d="M64.773 225.456V284H88.8355L89.7962 271.311L91.8985 243.808L92.1433 240.487L93.293 225.456H64.773Z" fill="#9EBCCC"/>
<path d="M37.4018 240.487L37.6573 243.808H91.8977L92.1426 240.487H37.4018Z" fill="white"/>
<path d="M33.334 225.456H96.2207V231.919H33.334V225.456Z" fill="#9EBCCC"/>
</g>
<defs>
<filter id="filter0_f_23838_2739" x="5" y="278" width="121" height="12" filterUnits="userSpaceOnUse" color-interpolation-filters="sRGB">
<feFlood flood-opacity="0" result="BackgroundImageFix"/>
<feBlend mode="normal" in="SourceGraphic" in2="BackgroundImageFix" result="shape"/>
<feGaussianBlur stdDeviation="1" result="effect1_foregroundBlur_23838_2739"/>
</filter>
<radialGradient id="paint0_radial_23838_2739" cx="0" cy="0" r="1" gradientUnits="userSpaceOnUse" gradientTransform="translate(65.5 284) rotate(180) scale(58.5 4)">
<stop stop-color="#3F0000"/>
<stop offset="1" stop-color="#A50000" stop-opacity="0"/>
</radialGradient>
<clipPath id="clip0_23838_2739">
<rect width="153" height="293" fill="white" transform="matrix(-1 0 0 1 153 0)"/>
</clipPath>
</defs>
</svg>
