<svg width="45" height="45" viewBox="0 0 45 45" fill="none" xmlns="http://www.w3.org/2000/svg">
<rect width="45" height="45" rx="22.5" fill="#F2F3F4"/>
<path fillRule="evenodd" clipRule="evenodd" d="M25.625 22.5C25.625 21.9247 25.1586 21.4584 24.5833 21.4584H14.1667C13.5914 21.4584 13.125 21.9247 13.125 22.5C13.125 23.0754 13.5914 23.5417 14.1667 23.5417H24.5833C25.1586 23.5417 25.625 23.0754 25.625 22.5Z" fill="#021713"/>
<path fillRule="evenodd" clipRule="evenodd" d="M31.875 15.2083C31.875 14.633 31.4086 14.1666 30.8333 14.1666H14.1667C13.5914 14.1666 13.125 14.633 13.125 15.2083C13.125 15.7836 13.5914 16.25 14.1667 16.25H30.8333C31.4086 16.25 31.875 15.7836 31.875 15.2083Z" fill="#021713"/>
<path fillRule="evenodd" clipRule="evenodd" d="M31.875 29.7917C31.875 29.2164 31.4086 28.75 30.8333 28.75H14.1667C13.5914 28.75 13.125 29.2164 13.125 29.7917C13.125 30.367 13.5914 30.8333 14.1667 30.8333H30.8333C31.4086 30.8333 31.875 30.367 31.875 29.7917Z" fill="#021713"/>
</svg>
